<svg viewBox="0 0 512 512" xml:space="preserve" xmlns="http://www.w3.org/2000/svg" enable-background="new 0 0 512 512"><path d="M449.954 63.664c-3.418-3.419-8.117-5.524-13.276-5.524H75.352c-5.157 0-9.858 2.105-13.276 5.524-3.387 3.387-5.524 8.087-5.524 13.245v260.183c0 5.158 2.137 9.857 5.524 13.246 3.418 3.418 8.119 5.523 13.276 5.523h361.326c5.159 0 9.858-2.105 13.247-5.523a18.614 18.614 0 0 0 5.523-13.246V76.909c0-5.158-2.105-9.858-5.494-13.245M136.24 436.74v10.346h239.551V436.74H136.24zm296.106-150.83V81.061H78.832v204.85h353.514zm7.476-208.604v212.358c0 2.075-1.68 3.754-3.724 3.754H75.078a3.752 3.752 0 0 1-3.755-3.754V77.306a3.752 3.752 0 0 1 3.755-3.754h361.021c2.044 0 3.723 1.678 3.723 3.754zM299.368 363.369h-86.737l-17.335 65.862h121.408l-17.336-65.862zm-39.979-42.301c-.887-.854-2.076-1.403-3.389-1.403a4.777 4.777 0 0 0-3.204 1.251l-.153.152a4.73 4.73 0 0 0-1.374 3.357c0 1.283.549 2.473 1.404 3.326.825.886 2.015 1.404 3.327 1.404 1.251 0 2.381-.457 3.204-1.221l.152-.184c.854-.854 1.404-2.043 1.404-3.326.001-1.311-.549-2.5-1.371-3.356zm-3.389-8.88a12.23 12.23 0 0 1 8.637 3.571l.123.122a12.226 12.226 0 0 1 3.479 8.545c0 3.357-1.374 6.439-3.571 8.638l-.275.274c-2.196 2.045-5.157 3.327-8.393 3.327a12.13 12.13 0 0 1-8.637-3.602 12.127 12.127 0 0 1-3.601-8.638c0-3.388 1.373-6.47 3.571-8.667l.273-.245c2.198-2.043 5.16-3.325 8.394-3.325zM97.265 109.383a3.752 3.752 0 0 1-3.753-3.754c0-2.046 1.68-3.755 3.753-3.755h53.564c2.044 0 3.753 1.709 3.753 3.755 0 2.074-1.709 3.754-3.753 3.754H97.265zm0 20.051a3.752 3.752 0 0 1-3.753-3.754 3.753 3.753 0 0 1 3.753-3.754h107.096a3.752 3.752 0 0 1 3.753 3.754 3.752 3.752 0 0 1-3.753 3.754H97.265zm0 20.052c-2.074 0-3.753-1.68-3.753-3.755s1.68-3.753 3.753-3.753h107.096c2.074 0 3.753 1.678 3.753 3.753s-1.679 3.755-3.753 3.755H97.265zm227.1-18.068H312.796l-.062.031h-.121l-.062.029h-.122l-.092.031h-.062v.03h-.091l-.03.03h-.062l-.029.03h-.062l-.03.03h-.061l-.032.031h-.03l-.091.061h-.062l-.062.03-.062.03-.029.031h-.062l-.062.062-.06.03h-.032l-.029.03-.029.03-.063.031h-.031v.029l-.091.031-.03.031-.031.03-.029.03-.063.03h-.029v.03h-.031v.031h-.03v.03h-.03l-.031.03-.062.03-.03.03-.029.031-.031.031-.03.029-.031.031v.03h-.03v.03h-.029v.031l-.031.029-.03.031-.03.03-.031.03-.029.031-.032.029-.03.031-.029.031v.03l-.031.03-.03.03-.031.03-.03.031-.029.031v.029l-.031.031v.029l-.03.031-.032.029v.031l-.029.031-.029.03v.03l-.032.061-.03.031-.031.031-.029.061v.03l-.03.03-.032.061v.031l-.029.061v.031l-.031.029-.03.063v.03l-.029.03v.061l-.032.031v.061l-.029.03v.062l-.029.031v.061l-.032.03v.091l-.03.063v.091l-.031.03v.092l-.029.061v.184l-.03.061V195.253l.03.031v.212l.029.03v.154h.031v.09l.03.062v.09l.062.123v.03l.062.152c.183.52.487.977.884 1.373l.03.031.031.029.03.031.031.031.029.03.03.03.062.03.031.03.03.031.03.029.031.031.029.031.063.03.029.03h.031l.03.03.062.03.029.031.031.03.063.03h.029l.029.03.032.03.06.031h.031l.03.031.062.029h.029l.062.031.032.03h.029l.062.03.03.031h.061l.03.029h.032l.061.031h.03l.062.03h.029l.062.03h.091l.03.031h.062l.031.029h.092l.061.031h.121l.092.031h.215l.032.03H324.618l.061-.03h.184l.091-.031h.153l.032-.031h.091l.062-.029h.029l.062-.031h.091l.032-.03h.06l.031-.03h.03l.062-.031h.029l.063-.029h.029l.062-.031.031-.03h.03l.061-.03.03-.031h.032l.059-.029.032-.031h.061l.029-.031.03-.03.031-.03h.061l.029-.03.03-.03.062-.031.031-.03.03-.03h.03l.061-.03.03-.03.032-.031.029-.031.031-.029.03-.031h.03l.031-.03.029-.03.031-.03.03-.03.03-.031.031-.031.029-.029.032-.031.03-.029.091-.063c.549-.609.946-1.434 1.007-2.318v-60.371h-.029v-.245h-.031v-.104l-.03-.061v-.093l-.03-.029v-.092h-.031v-.092l-.029-.062v-.03l-.032-.061v-.031l-.03-.061v-.03l-.029-.03-.031-.063v-.029l-.03-.031v-.061h-.032v-.031l-.029-.061v-.03h-.029v-.03l-.032-.061-.03-.031v-.031l-.031-.061-.029-.03-.03-.03-.031-.063v-.029h-.03v-.031l-.031-.029-.029-.061-.03-.031-.032-.031-.029-.03-.029-.03-.032-.061v-.031h-.03v-.031h-.031v-.029h-.029v-.031h-.03v-.03l-.031-.03-.062-.031-.029-.061-.03-.03-.032-.03-.029-.031-.031-.029-.03-.031-.03-.031-.031-.03-.029-.03-.031-.03h-.03l-.03-.03-.031-.031-.029-.03h-.032l-.03-.03-.061-.03-.03-.03-.03-.031-.031-.031-.062-.029h-.03l-.029-.031-.031-.03h-.03l-.031-.03h-.03l-.029-.03h-.031l-.03-.03-.032-.031h-.058l-.032-.031-.03-.03h-.061l-.03-.03h-.031l-.062-.03-.029-.03h-.063l-.029-.031h-.062l-.03-.03h-.031l-.06-.03h-.032l-.061-.03h-.03l-.062-.03h-.091l-.03-.031h-.153l-.031-.029h-.153l-.061-.031h-.447zm-11.138-7.509H325.096l.153.03h.122l.153.031h.152l.121.031h.152l.123.03.152.03h.152l.123.03.151.03.123.031.152.031.123.029.152.031.121.061.153.03.122.03.121.031.153.061.123.03.121.062.152.031.123.061.121.03.122.062.123.061.121.061.153.061.122.031.121.062.123.061.121.062.122.061.123.092.121.061.123.062.092.062.121.061.123.092.122.061.121.092.091.061.123.092.121.062.094.091.121.092.091.061.123.093.091.091h.031l.092.092.092.062.121.091.092.092.092.092.121.092.094.092.091.091.091.122.092.092h.029l.062.092h.032l.059.092h.032l.091.092.062.121h.03l.061.092.092.092.092.122.092.091.092.123.06.091h.032l.061.122.092.092.062.122h.03l.061.122.062.092h.03l.061.122.063.122h.029l.062.122.062.091.091.122.06.123.062.122.062.122.062.122.062.121.06.123.062.121.062.123.062.122.061.122.061.121.031.153h.029l.032.122.06.122.031.122h.03l.03.152.031.122h.029l.031.122.03.153.062.122.029.122.032.152.03.122.029.152h.031v.122h.03v.153h.031v.121h.03v.152h.029v.123l.031.152.03.122v.152h.032v.153l.029.121v.152l.029.153v.274l.032.152V195.51l-.032.123v.303l-.029.123v.151l-.029.152v.123l-.032.03v.122l-.03.123v.029l-.031.123v.152h-.029v.122h-.03v.153h-.031v.121h-.03v.152h-.031l-.029.123-.03.121v.031l-.032.122-.029.122v.03l-.062.091v.031l-.03.122-.031.122-.029.03-.031.122-.03.122h-.03l-.031.122-.06.123v.029l-.032.092-.029.03-.031.123-.061.122-.061.121-.062.123-.062.121-.062.123-.06.121-.062.123-.062.122-.062.122-.062.121-.212.336v.03a11.376 11.376 0 0 1-1.618 2.015l-.58.549-.121.093-.215.152v.03l-.091.061-.214.184-.121.061-.094.092-.121.061v.031l-.123.062-.091.061v.03l-.121.063-.122.061-.123.092-.121.061-.092.061-.123.092-.121.062-.123.061-.122.062-.121.061-.123.061-.121.061-.122.063-.121.061h-.032l-.121.03-.123.062-.122.061-.121.03-.123.062-.152.061-.121.031-.123.061-.153.031-.121.029-.122.031v.031l-.153.03-.121.03-.152.03-.123.03-.152.031-.123.03-.151.03-.123.03-.152.03h-.152l-.123.031-.152.031h-.121l-.152.029h-.153l-.122.031H324.8l-.123.03h-11.719l-.152-.03h-.426l-.152-.031h-.152l-.123-.029h-.152l-.121-.031h-.032l-.121-.031h-.152l-.123-.03-.152-.03-.121-.03h-.032l-.121-.03-.123-.031h-.029l-.123-.03-.121-.03-.152-.03-.123-.03-.152-.063-.123-.029-.121-.031-.152-.061-.123-.031-.121-.061-.123-.062h-.029l-.123-.03-.121-.061-.123-.062-.121-.03-.123-.061-.123-.063-.121-.061h-.031l-.091-.061h-.03l-.123-.061-.091-.062h-.03l-.122-.061-.091-.062-.123-.092-.121-.061-.123-.061-.121-.092-.123-.061-.092-.063-.122-.091-.121-.062-.092-.092-.123-.092-.122-.061-.092-.092-.121-.092-.091-.061-.123-.092-.091-.091-.092-.093-.123-.091-.091-.091-.092-.093-.122-.091-.092-.092-.091-.092a11.295 11.295 0 0 1-2.96-5.188l-.032-.123-.029-.122v-.03l-.032-.092v-.029l-.029-.123v-.03l-.03-.092v-.03l-.031-.092v-.153l-.03-.031v-.082l-.029-.062v-.122l-.032-.091v-.216l-.029-.061v-.215l-.031-.061v-.397l-.03-.123V134.773l.03-.123v-.302l.031-.122v-.153l.029-.152v-.121l.032-.153v-.152l.029-.122.03-.152.031-.123.03-.152.029-.121.032-.153.029-.122.032-.152.029-.122.03-.152.031-.122.062-.122.029-.153.062-.122.03-.122.062-.152.029-.122.062-.122.062-.122.03-.153.061-.121.062-.122.062-.122.06-.123.062-.121.062-.123.062-.121.062-.122.06-.122.062-.122.091-.123.062-.091v-.031l.062-.091.092-.122.061-.122.092-.092v-.03l.062-.092.091-.122.062-.091v-.031l.092-.092.091-.122.062-.091.091-.123.092-.091.091-.092v-.03l.093-.092.092-.092.091-.092v-.029l.092-.092.091-.092.093-.092.092-.092.091-.122.092-.091.122-.092.092-.092.214-.184.092-.061v-.03l.091-.062.123-.092.091-.091.121-.093.092-.061.122-.092.123-.091.092-.062.121-.092.122-.061.092-.092.123-.061.121-.061v-.031l.123-.061.121-.062.123-.062.091-.061.122-.061v-.031l.121-.061.123-.062h.03l.091-.03v-.03l.152-.062.123-.031.123-.061.121-.061.123-.061.121-.031v-.03l.123-.03h.029l.123-.061.121-.031.123-.062.152-.03.396-.122.123-.03.152-.061.121-.031.123-.029h.029l.123-.031.121-.031h.032l.121-.03.152-.03h.123l.152-.03.121-.03h.153l.152-.031h.123l.152-.031h.152l.121-.03h.715zm61.07 4.091c-14.223-14.193-33.848-22.982-55.485-22.982-21.67 0-41.295 8.789-55.487 22.982-14.19 14.191-22.98 33.815-22.98 55.484 0 21.67 8.758 41.295 22.98 55.486 14.192 14.222 33.817 22.981 55.487 22.981 21.667 0 41.292-8.76 55.485-22.981 14.19-14.191 22.98-33.816 22.98-55.486 0-21.669-8.79-41.293-22.98-55.484zm-55.485-30.49c23.743 0 45.23 9.645 60.765 25.18 15.564 15.564 25.209 37.051 25.209 60.795 0 23.745-9.645 45.262-25.179 60.797-15.564 15.564-37.052 25.179-60.795 25.179-23.746 0-45.263-9.614-60.797-25.179-15.565-15.535-25.179-37.052-25.179-60.797 0-23.744 9.614-45.23 25.179-60.795 15.564-15.536 37.05-25.18 60.797-25.18zM97.265 226.121a3.752 3.752 0 0 1-3.753-3.754 3.752 3.752 0 0 1 3.753-3.754h72.424a3.751 3.751 0 0 1 3.755 3.754 3.752 3.752 0 0 1-3.755 3.754H97.265zm0 20.051c-2.074 0-3.753-1.678-3.753-3.753s1.68-3.754 3.753-3.754h144.879c2.044 0 3.753 1.679 3.753 3.754s-1.709 3.753-3.753 3.753H97.265zM33.51 169.17a3.752 3.752 0 0 1-3.753 3.755 3.752 3.752 0 0 1-3.755-3.755V57.682c0-7.936 3.266-15.169 8.484-20.388 5.22-5.219 12.422-8.454 20.356-8.454h64.092c2.046 0 3.755 1.68 3.755 3.754 0 2.045-1.709 3.754-3.755 3.754H54.842c-5.859 0-11.2 2.381-15.045 6.258-3.876 3.875-6.288 9.217-6.288 15.076V169.17zM457.157 36.348c-2.075 0-3.753-1.709-3.753-3.754a3.752 3.752 0 0 1 3.753-3.754c7.936 0 15.139 3.235 20.357 8.454 5.25 5.249 8.484 12.482 8.484 20.388v47.123c0 2.074-1.678 3.754-3.754 3.754s-3.753-1.68-3.753-3.754V57.682a21.163 21.163 0 0 0-6.258-15.076 21.155 21.155 0 0 0-15.076-6.258zM57.01 469.427c-2.074 0-3.753-1.679-3.753-3.754s1.679-3.754 3.753-3.754h258.413c2.075 0 3.753 1.679 3.753 3.754s-1.678 3.754-3.753 3.754H57.01zm151.319 13.733a3.752 3.752 0 0 1-3.755-3.753 3.752 3.752 0 0 1 3.755-3.755h178.816a3.751 3.751 0 0 1 3.754 3.755 3.75 3.75 0 0 1-3.754 3.753H208.329zm197.128 0a3.752 3.752 0 0 1-3.755-3.753 3.753 3.753 0 0 1 3.755-3.755h22.372a3.752 3.752 0 0 1 3.753 3.755 3.752 3.752 0 0 1-3.753 3.753h-22.372zm-358.641-.427a3.75 3.75 0 0 1-3.753-3.754c0-2.045 1.677-3.724 3.753-3.724h84.754a3.74 3.74 0 0 1 3.724 3.724c0 2.075-1.68 3.754-3.724 3.754H46.816zm50.449-216.508a3.752 3.752 0 0 1-3.753-3.754 3.752 3.752 0 0 1 3.753-3.754h144.879c2.044 0 3.753 1.679 3.753 3.754 0 2.074-1.709 3.754-3.753 3.754H97.265z" fill-rule="evenodd" clip-rule="evenodd" fill="#ffb54d" class="fill-000000"></path></svg>